<?xml version="1.0" encoding="UTF-8"?>
<svg xmlns="http://www.w3.org/2000/svg" version="1.1" viewBox="0 0 2747.8 666">
  <defs>
    <style>
      .cls-1 {
        fill: none;
      }

      .cls-2 {
        fill: #fff;
      }
    </style>
  </defs>
  <!-- Generator: Adobe Illustrator 28.7.1, SVG Export Plug-In . SVG Version: 1.2.0 Build 142)  -->
  <g>
    <g id="R-SAVOIR">
      <rect class="cls-1" x="-207.9" y="-1141.1" width="3235.2" height="3235.2"/>
      <g>
        <path class="cls-2" d="M18.5,189.1C12.9,116.2,67.3,48.5,127.7,19,165.6.5,199.8,0,216.1,0c22.3,0,87,3.3,139,50.5,12,10.9,20.5,21.6,25.9,29.1-8.2.2-16.4.5-24.6.7-8.6-8.2-21.9-19.7-40.3-30.2-14.3-8.2-61.2-34.1-122.3-26-23.1,3.1-59,7.9-86.1,37.9-5,5.5-30.6,34-27.7,74.5,3.1,41.9,34.9,67.3,43.5,74.2,32,25.6,59.1,21.5,117,33,57.1,11.3,106.1,20.7,147.7,53,10.1,7.8,78.9,63,82,155.5,2.1,62.7-27.1,107.3-35.7,119.6-45.2,64.6-115.1,79.6-146.5,86.3-26.4,5.7-107.9,23.2-187.7-25.5C33,591.7,7.5,528.4,0,507.3c8.5.2,17.1.4,25.6.5,7.9,19.3,26.9,57.8,67.7,89.1,18.1,13.9,64.2,49.3,128.3,42.5,13.8-1.5,79-10.3,114.9-68.3,27.5-44.5,20.5-90,18.8-99.4-1.4-7.8-9-46.8-48.5-85.6-86.8-85.2-189.5-33.5-255.9-115.1-4.3-5.3-29.2-36.8-32.6-82h0Z"/>
        <path class="cls-2" d="M452.5,638.5c16.7-10.9,39.9-28.7,60.8-55.9,31.3-40.8,38.4-78.3,52.5-147.3,30.9-150.6,46.6-213.8,79.1-279.6,10.3-20.9,22.2-41.9,42.7-63.2,41-42.5,90.1-58.8,119-65.8-9.6,10.5-23.6,26.8-38.5,48.2-36.9,53.1-57,106.1-86.1,225-29,118.6-30.3,153.1-62,228-21.5,50.8-42.7,86.6-82.2,104.1-33,14.6-65.8,10.7-85.3,6.4h0Z"/>
        <path class="cls-2" d="M728.6,114.2c6-5.6,12.1-11.2,18.1-16.9,63.3,181,126.5,362,189.8,543-7.9,0-15.9,0-23.8,0L728.6,114.2Z"/>
        <rect class="cls-2" x="622" y="447.3" width="240.1" height="23.7"/>
        <path class="cls-2" d="M1389.5,48.1c7.7,0,15.4-.2,23.1-.2-63.5,175.6-127,351.3-190.4,526.9l-22.3-8.1c63.2-172.9,126.4-345.8,189.6-518.6h0Z"/>
        <path class="cls-2" d="M911,56.3c18.8,7.8,47.4,22.6,72.5,50.6,23.8,26.4,34.1,53.2,39.2,67.3,43.5,118.6,46.6,222.8,103,339,22,45.4,38.3,64,58.1,77.4,53,35.9,118,25,146,18.4-12.3-5.2-24.7-10.5-37-15.7-10.2-5.4-24.6-14.1-39.4-27.5-51.8-46.7-56.4-102.9-80.3-202.4-37.9-158.4-73-211.7-95.8-240.1-23.1-28.8-47-49-78.4-60.5-36.4-13.3-69.6-9.9-87.9-6.5h0Z"/>
        <path class="cls-2" d="M2009.1,334.6c-6.6-106.5-66.1-197.3-134.8-243.9-16.8-11.4-48.3-32.3-94.3-38,0,0-55.9-7-111.6,18.2-95.1,43.1-144.4,163.9-147.9,262.5-4.2,119.1,57.2,241.2,147.1,287.9,47.4,24.6,96.2,25.9,96.2,25.9,0,0,55.4,1.4,108.2-26.4,92.8-48.8,144-174.6,137.1-286.1h0ZM1720.4,624.6c-110.4-42.4-110.6-240.2-110.7-280.9,0-49.6-.3-224.1,101.6-267.9,49.1-21.1,97.2-1.3,100.2,0,97.1,41.6,101.3,201,102.9,260.6,1.2,45.9,6.4,240.8-101.5,286.5-4,1.7-46.9,19.1-92.6,1.6h0Z"/>
        <path class="cls-2" d="M2087.2,53c9,5.2,20.7,13.6,29.9,27.1,14.6,21.5,15.3,44.7,15.5,55.2.7,56.2-7.5,289.3-8.4,363-.7,58.4,2.2,93.1,27.6,117.3,27.3,26,67.3,27.1,90.9,25.4-6.6-6.3-16.6-17.2-24.6-33.1-10.1-19.9-12-37.8-12.8-45.3-5.7-57.6,16.6-237.1,11.9-361.4-2.4-62.4-11.6-110.2-42.4-131.6-32.1-22.3-66-20.4-66-20.4-9,.5-16.3,2.3-21.4,3.8h0Z"/>
        <path class="cls-2" d="M2548,400.2l20.5-11.8,145.5,254.8c-9.4,0-18.8-.1-28.2-.2-45.9-80.9-91.9-161.8-137.8-242.8h0Z"/>
        <path class="cls-2" d="M2384.5,406c48.9.4,91.5,0,125.9-.4,65.9-.9,84.5-2.2,109.1-9.8,22.3-6.9,57.6-17.8,86.9-50.4,42.7-47.4,41.7-106.4,41.4-122.4-.3-17.9-1.9-67.6-37.5-110.3-23.8-28.5-51.5-40.5-74.1-49.9-31.6-13.2-65.6-20.3-179.8-19.7-33.4.2-78.4,1.1-132,4.1,11.4,5.9,22.7,11.9,34.1,17.8,52.4-3.2,96.4-3.2,129-2.3,115,3,145.1,17.4,163.4,29.1,13.1,8.3,40.8,25.9,57.7,60.7,14.7,30.1,13.9,57.8,13.3,74-.6,16-2.3,59.3-32.9,97.5-29.9,37.4-70.2,48.3-93.9,54.8-17.2,4.8-32.6,6.7-124.7,5.6-34.6-.4-63.5-1.1-84.2-1.6l-1.7,23.2h0Z"/>
        <path class="cls-2" d="M2303,51.1c9,5.2,20.7,13.7,29.9,27.4,14.6,21.7,15.3,45.1,15.5,55.8.7,56.8-7.5,292.2-8.4,366.7-.7,59,2.2,94.1,27.6,118.5,27.3,26.3,67.3,27.4,90.9,25.7-6.6-6.4-16.6-17.4-24.6-33.5-10.1-20.1-12-38.2-12.8-45.8-5.7-58.2,16.6-239.5,11.9-365-2.4-63.1-11.6-111.3-42.4-133-32.1-22.6-66-20.6-66-20.6-9,.5-16.3,2.3-21.4,3.8h0Z"/>
      </g>
    </g>
  </g>
</svg>